<?xml version="1.0" encoding="UTF-8" standalone="no"?>
<!-- Created with Inkscape (http://www.inkscape.org/) -->

<svg
   width="148.75339mm"
   height="39.079842mm"
   viewBox="0 0 148.75339 39.079842"
   version="1.1"
   id="svg5"
   inkscape:version="1.1.1 (eb90963e84, 2021-10-02)"
   sodipodi:docname="logo.svg"
   inkscape:export-filename="/home/pgszafir/snap/inkscape/9256/bitmapa.png"
   inkscape:export-xdpi="96"
   inkscape:export-ydpi="96"
   xmlns:inkscape="http://www.inkscape.org/namespaces/inkscape"
   xmlns:sodipodi="http://sodipodi.sourceforge.net/DTD/sodipodi-0.dtd"
   xmlns="http://www.w3.org/2000/svg"
   xmlns:svg="http://www.w3.org/2000/svg">
  <sodipodi:namedview
     id="namedview7"
     pagecolor="#ffffff"
     bordercolor="#999999"
     borderopacity="1"
     inkscape:pageshadow="0"
     inkscape:pageopacity="0"
     inkscape:pagecheckerboard="0"
     inkscape:document-units="mm"
     showgrid="false"
     inkscape:zoom="1.2044227"
     inkscape:cx="280.63237"
     inkscape:cy="-68.912683"
     inkscape:window-width="1920"
     inkscape:window-height="1164"
     inkscape:window-x="0"
     inkscape:window-y="0"
     inkscape:window-maximized="1"
     inkscape:current-layer="layer1" />
  <defs
     id="defs2" />
  <g
     inkscape:label="Warstwa 1"
     inkscape:groupmode="layer"
     id="layer1"
     transform="translate(96.726468,55.210914)">
    <path
       style="fill:#00ffff;stroke:none;stroke-width:1.28317"
       id="path1391"
       d="m -96.849923,-16.247454 c 1.530242,-0.187435 3.060039,-0.423217 4.590717,-0.562642 8.626384,-0.785857 11.753001,-0.71673 21.123666,-1.311288 19.827977,-1.258135 39.651713,-3.006387 59.475628,-4.852256 31.973073,-4.47824 13.5290938,-1.280647 44.506062,-7.973137 6.018182,-1.300205 12.037535,-2.535052 18.056296,-3.802594 0,0 1.090727,-2.767589 1.090727,-2.767589 v 0 c -6.326156,2.047914 -12.643664,4.440521 -18.978472,6.143752 -18.283271,4.915829 -25.9799474,5.379961 -44.505496,7.975753 -7.249134,0.254235 -14.498114,0.964035 -21.747384,0.762484 -6.297883,-0.175021 -12.59369,-0.985411 -18.886251,-1.891955 -5.074045,-0.731023 -10.143739,-1.815166 -15.210118,-3.020215 -7.205717,-1.713904 -14.449508,-3.783302 -21.558534,-8.363961 0,0 -7.956841,19.663597 -7.956841,19.663597 z" />
    <text
       xml:space="preserve"
       style="font-style:normal;font-weight:normal;font-size:36.802px;line-height:1.25;font-family:sans-serif;fill:#ffffff;fill-opacity:1;stroke:none;stroke-width:0.920051"
       x="-97.792702"
       y="-16.538099"
       id="text3597"><tspan
         sodipodi:role="line"
         id="tspan3595"
         style="fill:#ffffff;stroke-width:0.920051"
         x="-97.792702"
         y="-16.538099">fotonArt</tspan></text>
    <path
       style="fill:#ffeeaa;fill-rule:evenodd"
       id="path10528"
       sodipodi:type="arc"
       sodipodi:cx="-26.106707"
       sodipodi:cy="-48.403049"
       sodipodi:rx="6.8080001"
       sodipodi:ry="6.8078647"
       sodipodi:start="6.2485051"
       sodipodi:end="6.1836281"
       sodipodi:arc-type="slice"
       d="m -19.3028,-48.6391 a 6.8080001,6.8078647 0 0 1 -6.457533,7.035098 6.8080001,6.8078647 0 0 1 -7.139045,-6.342455 6.8080001,6.8078647 0 0 1 6.225963,-7.24083 6.8080001,6.8078647 0 0 1 7.340997,6.107585 l -6.774289,0.676653 z" />
  </g>
</svg>
